<?xml version="1.0" encoding="UTF-8"?>
<svg id="Capa_1" data-name="Capa 1" xmlns="http://www.w3.org/2000/svg" viewBox="0 0 78.62 78.62">
  <g id="Instagram">
    <g>
      <path d="m39.31,7.08c10.5,0,11.74.04,15.89.23,3.83.17,5.91.82,7.3,1.35,1.83.71,3.14,1.56,4.52,2.94,1.38,1.38,2.23,2.69,2.94,4.52.54,1.39,1.18,3.47,1.35,7.3.19,4.15.23,5.39.23,15.89s-.04,11.74-.23,15.88c-.18,3.83-.82,5.91-1.35,7.3-.71,1.84-1.56,3.14-2.94,4.52-1.38,1.38-2.69,2.23-4.52,2.94-1.39.54-3.47,1.18-7.3,1.35-4.15.19-5.39.23-15.89.23s-11.74-.04-15.89-.23c-3.83-.17-5.91-.82-7.3-1.35-1.84-.71-3.14-1.57-4.52-2.94-1.38-1.38-2.23-2.69-2.94-4.52-.54-1.38-1.18-3.47-1.35-7.3-.19-4.15-.23-5.39-.23-15.88s.04-11.74.23-15.89c.18-3.83.82-5.91,1.35-7.3.71-1.83,1.57-3.14,2.94-4.52,1.38-1.38,2.68-2.23,4.52-2.94,1.38-.54,3.47-1.18,7.3-1.35,4.15-.19,5.39-.23,15.89-.23m0-7.08c-10.68,0-12.01.05-16.21.24-4.18.19-7.04.86-9.54,1.83-2.59,1-4.78,2.35-6.96,4.53-2.19,2.19-3.53,4.38-4.53,6.96-.97,2.5-1.64,5.36-1.83,9.54-.19,4.19-.24,5.53-.24,16.21s.05,12.01.24,16.21c.19,4.18.86,7.04,1.83,9.54,1,2.58,2.35,4.78,4.53,6.96,2.19,2.19,4.38,3.53,6.96,4.53,2.5.97,5.36,1.64,9.54,1.83,4.19.19,5.53.24,16.21.24s12.01-.04,16.21-.24c4.18-.19,7.04-.86,9.54-1.83,2.59-1,4.78-2.35,6.96-4.53,2.19-2.19,3.53-4.38,4.53-6.96.97-2.5,1.64-5.36,1.83-9.54.19-4.19.24-5.53.24-16.21s-.04-12.01-.24-16.21c-.19-4.18-.86-7.04-1.83-9.54-1-2.58-2.35-4.78-4.53-6.96-2.19-2.19-4.38-3.53-6.96-4.53-2.5-.97-5.36-1.64-9.54-1.83-4.19-.19-5.53-.24-16.21-.24"/>
      <path d="m39.31,19.13c-11.15,0-20.19,9.04-20.19,20.19s9.04,20.19,20.19,20.19,20.19-9.04,20.19-20.19-9.04-20.19-20.19-20.19m0,33.29c-7.24,0-13.1-5.87-13.1-13.1s5.87-13.1,13.1-13.1,13.1,5.87,13.1,13.1-5.87,13.1-13.1,13.1"/>
      <path d="m65.01,18.33c0,2.61-2.11,4.72-4.72,4.72s-4.72-2.11-4.72-4.72,2.11-4.72,4.72-4.72,4.72,2.11,4.72,4.72"/>
    </g>
  </g>
</svg>